<svg width="294" height="80" viewBox="0 0 294 80" fill="none" xmlns="http://www.w3.org/2000/svg">
<path d="M13.552 17.312H23.968C27.904 17.312 30.896 18.144 32.944 19.808C34.992 21.472 36.016 23.696 36.016 26.48C36.016 30.064 34.816 32.752 32.416 34.544C30.048 36.304 26.816 37.184 22.72 37.184C21.984 37.184 21.008 37.152 19.792 37.088V47.312L23.584 47.6C23.744 49.2 23.232 50 22.048 50H11.968V49.616C11.968 48.304 12.528 47.6 13.648 47.504L15.616 47.408V20L12.112 19.712C12.016 18.112 12.496 17.312 13.552 17.312ZM19.792 34.688L22.192 34.736C28.496 34.736 31.648 32.16 31.648 27.008C31.648 21.824 28.624 19.392 22.576 19.712L19.792 19.808V34.688ZM58.1211 37.616H43.1451C43.1131 37.872 43.0971 38.272 43.0971 38.816C43.0971 44.608 45.4651 47.504 50.2011 47.504C52.5691 47.504 54.8091 46.656 56.9211 44.96C57.3691 45.248 57.5931 45.728 57.5931 46.4C57.5931 47.36 56.7131 48.32 54.9531 49.28C53.2251 50.24 51.2091 50.72 48.9051 50.72C45.7691 50.72 43.2891 49.728 41.4651 47.744C39.6731 45.76 38.7771 42.752 38.7771 38.72C38.7771 34.688 39.8171 31.488 41.8971 29.12C44.0091 26.752 46.5691 25.568 49.5771 25.568C52.5851 25.568 54.7611 26.496 56.1051 28.352C57.4811 30.208 58.1531 32.48 58.1211 35.168V37.616ZM52.6971 30.176C51.9291 28.992 50.8091 28.4 49.3371 28.4C47.8651 28.4 46.6011 28.992 45.5451 30.176C44.5211 31.328 43.8011 32.976 43.3851 35.12H53.9931C53.9291 32.976 53.4971 31.328 52.6971 30.176ZM85.4178 48.224C85.3538 49.888 84.2178 50.72 82.0098 50.72C79.8338 50.72 78.6018 49.648 78.3138 47.504C76.0418 49.648 73.5778 50.72 70.9218 50.72C68.2978 50.72 66.0738 49.744 64.2498 47.792C62.4258 45.84 61.4818 42.88 61.4178 38.912C61.3538 34.944 62.3298 31.728 64.3458 29.264C66.3618 26.8 69.2418 25.568 72.9858 25.568C74.8738 25.568 76.6338 25.952 78.2658 26.72V19.76L75.9138 19.52C74.9538 19.424 74.5218 18.656 74.6178 17.216L82.2978 16.256V47.888L85.4178 48.224ZM78.2658 30.8C76.6018 29.296 74.6178 28.544 72.3138 28.544C70.0098 28.544 68.3298 29.472 67.2738 31.328C66.2178 33.152 65.6898 35.44 65.6898 38.192C65.6898 40.944 66.2338 43.184 67.3218 44.912C68.4418 46.64 70.0258 47.504 72.0738 47.504C74.1218 47.504 76.1858 46.56 78.2658 44.672V30.8ZM95.677 29.552C96.605 28.528 97.773 27.616 99.181 26.816C100.621 25.984 101.805 25.568 102.733 25.568C103.693 25.568 104.477 25.824 105.085 26.336C105.693 26.848 105.997 27.776 105.997 29.12C105.997 30.464 105.661 31.504 104.989 32.24C104.509 32.624 103.773 32.768 102.781 32.672C102.781 30.336 102.173 29.168 100.957 29.168C99.421 29.168 97.693 30.24 95.773 32.384V47.408L99.805 47.696C99.965 49.232 99.437 50 98.221 50H88.189V49.616C88.189 49.296 88.269 48.944 88.429 48.56C88.653 47.984 89.133 47.664 89.869 47.6L91.693 47.504V29.168L89.245 28.928C88.477 28.832 88.093 28.096 88.093 26.72L95.197 25.808L95.533 29.552H95.677ZM113.916 31.184C112.828 32.976 112.284 35.328 112.284 38.24C112.284 41.152 112.828 43.504 113.916 45.296C115.004 47.056 116.556 47.936 118.572 47.936C120.588 47.904 122.156 47.024 123.276 45.296C124.396 43.536 124.956 41.216 124.956 38.336C124.956 35.424 124.428 33.04 123.372 31.184C122.316 29.328 120.748 28.416 118.668 28.448C116.62 28.448 115.036 29.36 113.916 31.184ZM119.004 25.568C121.884 25.568 124.3 26.544 126.252 28.496C128.204 30.448 129.196 33.472 129.228 37.568C129.26 41.632 128.3 44.848 126.348 47.216C124.396 49.552 121.724 50.72 118.332 50.72C114.972 50.72 112.412 49.696 110.652 47.648C108.924 45.568 108.044 42.56 108.012 38.624C107.98 34.688 108.94 31.536 110.892 29.168C112.876 26.768 115.58 25.568 119.004 25.568ZM144.835 17.408H172.291V23.456C172.291 24.576 171.491 25.088 169.891 24.992L169.555 20.192H160.723V47.312L164.419 47.6C164.579 49.2 164.067 50 162.883 50H152.659V49.616C152.659 48.304 153.219 47.6 154.339 47.504L156.499 47.408V20.192H147.619L147.235 24.992C145.635 25.088 144.835 24.576 144.835 23.456V17.408ZM182.818 29.552C183.746 28.528 184.914 27.616 186.322 26.816C187.762 25.984 188.946 25.568 189.874 25.568C190.834 25.568 191.618 25.824 192.226 26.336C192.834 26.848 193.138 27.776 193.138 29.12C193.138 30.464 192.802 31.504 192.13 32.24C191.65 32.624 190.914 32.768 189.922 32.672C189.922 30.336 189.314 29.168 188.098 29.168C186.562 29.168 184.834 30.24 182.914 32.384V47.408L186.946 47.696C187.106 49.232 186.578 50 185.362 50H175.33V49.616C175.33 49.296 175.41 48.944 175.57 48.56C175.794 47.984 176.274 47.664 177.01 47.6L178.834 47.504V29.168L176.386 28.928C175.618 28.832 175.234 28.096 175.234 26.72L182.338 25.808L182.674 29.552H182.818ZM204.992 50H195.392V49.616C195.392 49.296 195.472 48.944 195.632 48.56C195.856 47.984 196.336 47.664 197.072 47.6L198.944 47.504V28.976L196.64 28.736C195.744 28.64 195.296 27.872 195.296 26.432L203.024 25.568V47.408L206.576 47.696C206.736 49.232 206.208 50 204.992 50ZM202.544 21.584C202.032 22.064 201.376 22.304 200.576 22.304C199.776 22.304 199.12 22.064 198.608 21.584C198.096 21.072 197.84 20.416 197.84 19.616C197.84 18.816 198.096 18.16 198.608 17.648C199.12 17.136 199.776 16.88 200.576 16.88C201.376 16.88 202.032 17.136 202.544 17.648C203.056 18.16 203.312 18.816 203.312 19.616C203.312 20.416 203.056 21.072 202.544 21.584ZM234.936 50H225.528V49.616C225.528 49.296 225.592 48.944 225.72 48.56C225.976 47.984 226.472 47.664 227.208 47.6L229.08 47.504V35.264C229.08 31.104 227.416 29.024 224.088 29.024C222.776 29.024 221.624 29.264 220.632 29.744C219.64 30.192 218.552 30.928 217.368 31.952V47.408L220.776 47.696C220.936 49.232 220.408 50 219.192 50H209.688V49.616C209.688 49.296 209.752 48.944 209.88 48.56C210.136 47.984 210.632 47.664 211.368 47.6L213.288 47.504V29.072L210.984 28.832C210.088 28.736 209.64 27.984 209.64 26.576L216.552 25.712L217.08 29.12H217.224C219.784 26.752 222.28 25.568 224.712 25.568C227.176 25.568 229.192 26.352 230.76 27.92C232.328 29.456 233.112 31.84 233.112 35.072V47.408L236.52 47.696C236.68 49.232 236.152 50 234.936 50ZM250.921 25.568C253.065 25.568 254.761 26.016 256.009 26.912C257.289 27.776 257.929 28.944 257.929 30.416C257.929 31.44 257.609 32.192 256.969 32.672C256.361 33.12 255.641 33.312 254.809 33.248C254.777 32 254.377 30.912 253.609 29.984C252.873 29.056 251.737 28.592 250.201 28.592C248.089 28.592 246.473 29.472 245.353 31.232C244.265 32.992 243.721 35.264 243.721 38.048C243.721 40.8 244.281 43.072 245.401 44.864C246.521 46.624 248.297 47.504 250.729 47.504C253.161 47.504 255.401 46.656 257.449 44.96C257.961 45.28 258.217 45.76 258.217 46.4C258.217 47.36 257.289 48.32 255.433 49.28C253.609 50.24 251.609 50.72 249.433 50.72C246.297 50.72 243.849 49.664 242.089 47.552C240.361 45.408 239.481 42.448 239.449 38.672C239.417 34.896 240.425 31.776 242.473 29.312C244.521 26.816 247.337 25.568 250.921 25.568ZM283.225 48.32C283.225 49.952 282.153 50.768 280.009 50.768C277.897 50.768 276.617 49.824 276.169 47.936C274.089 49.792 271.785 50.72 269.257 50.72C266.761 50.72 264.857 50.144 263.545 48.992C262.233 47.84 261.577 46.272 261.577 44.288C261.577 42.304 262.313 40.64 263.785 39.296C265.289 37.952 267.753 37.28 271.177 37.28C272.905 37.28 274.505 37.456 275.977 37.808V34.496C275.977 30.464 274.281 28.448 270.889 28.448C269.353 28.448 268.201 28.912 267.433 29.84C266.697 30.736 266.297 31.808 266.233 33.056C265.305 33.152 264.537 32.992 263.929 32.576C263.321 32.16 263.017 31.472 263.017 30.512C263.017 29.104 263.737 27.936 265.177 27.008C266.649 26.048 268.553 25.568 270.889 25.568C272.713 25.568 274.201 25.84 275.353 26.384C276.505 26.928 277.385 27.504 277.993 28.112C279.369 29.552 280.057 31.6 280.057 34.256V47.936L283.225 48.32ZM275.977 40.88C274.569 40.208 273.001 39.872 271.273 39.872C269.545 39.872 268.233 40.224 267.337 40.928C266.441 41.6 265.993 42.56 265.993 43.808C265.993 45.024 266.361 45.984 267.097 46.688C267.833 47.36 268.873 47.696 270.217 47.696C272.329 47.696 274.249 46.96 275.977 45.488V40.88Z" fill="#01131D"/>
</svg>
